<?xml version="1.0" encoding="utf-8"?>
<!-- Generator: Adobe Illustrator 18.0.0, SVG Export Plug-In . SVG Version: 6.00 Build 0)  -->
<!DOCTYPE svg PUBLIC "-//W3C//DTD SVG 1.1//EN" "http://www.w3.org/Graphics/SVG/1.1/DTD/svg11.dtd">
<svg version="1.1" id="Layer_1" xmlns="http://www.w3.org/2000/svg" xmlns:xlink="http://www.w3.org/1999/xlink" x="0px" y="0px"
	 viewBox="0 0 96 96" enable-background="new 0 0 96 96" xml:space="preserve">
<path fill="#FFFFFF" stroke="#000000" stroke-width="3" stroke-miterlimit="10" d="M86,32H10c-1.1,0-2-0.9-2-2V10c0-1.1,0.9-2,2-2
	h76c1.1,0,2,0.9,2,2v20C88,31.1,87.1,32,86,32z"/>
<path fill="#FFFFFF" stroke="#000000" stroke-width="3" stroke-miterlimit="10" d="M30,60H10c-1.1,0-2-0.9-2-2V38c0-1.1,0.9-2,2-2
	h20c1.1,0,2,0.9,2,2v20C32,59.1,31.1,60,30,60z"/>
<path fill="#FFFFFF" stroke="#000000" stroke-width="3" stroke-miterlimit="10" d="M58,60H38c-1.1,0-2-0.9-2-2V38c0-1.1,0.9-2,2-2
	h20c1.1,0,2,0.9,2,2v20C60,59.1,59.1,60,58,60z"/>
<path fill="#FFFFFF" stroke="#000000" stroke-width="3" stroke-miterlimit="10" d="M86,60H66c-1.1,0-2-0.9-2-2V38c0-1.1,0.9-2,2-2
	h20c1.1,0,2,0.9,2,2v20C88,59.1,87.1,60,86,60z"/>
<path fill="#FFFFFF" stroke="#000000" stroke-width="3" stroke-miterlimit="10" d="M30,88H10c-1.1,0-2-0.9-2-2V66c0-1.1,0.9-2,2-2
	h20c1.1,0,2,0.9,2,2v20C32,87.1,31.1,88,30,88z"/>
<path fill="#FFFFFF" stroke="#000000" stroke-width="3" stroke-miterlimit="10" d="M58,88H38c-1.1,0-2-0.9-2-2V66c0-1.1,0.9-2,2-2
	h20c1.1,0,2,0.9,2,2v20C60,87.1,59.1,88,58,88z"/>
<path fill="#FFFFFF" stroke="#000000" stroke-width="3" stroke-miterlimit="10" d="M86,88H66c-1.1,0-2-0.9-2-2V66c0-1.1,0.9-2,2-2
	h20c1.1,0,2,0.9,2,2v20C88,87.1,87.1,88,86,88z"/>
</svg>
