<svg version="1.1" id="Layer_1" xmlns="http://www.w3.org/2000/svg" xmlns:xlink="http://www.w3.org/1999/xlink" x="0px" y="0px"
	 viewBox="0 0 1024 1024" enable-background="new 0 0 1024 1024" xml:space="preserve">
<path d="M318.9,792.5c0,3.2,0,6.4-1.1,9.6c0,2.1,1.1,4.3,3.2,5.3c5.3,2.1,10.7,4.3,16,4.3c4.3,0,8.5-1.1,12.8-1.1
	c3.2,0,5.3-2.1,5.3-5.3c0-6.4-1.1-12.8-2.1-19.2c-5.3-21.3-10.7-41.6-14.9-62.9c-3.2-16-7.5-32-9.6-48c-2.1-13.9-4.3-27.7-6.4-41.6
	c-2.1-18.1-4.3-35.2-7.5-53.3c0-4.3-1.1-7.5-1.1-11.7c0-3.2,1.1-5.3,3.2-7.5c2.1-1.1,3.2-3.2,5.3-4.3c16-13.9,33.1-26.7,49.1-40.5
	c23.5-20.3,46.9-40.5,69.3-61.9c10.7-10.7,21.3-20.3,32-30.9c18.1-16,30.9-35.2,41.6-56.5c2.1-4.3,3.2-8.5,2.1-12.8
	c-1.1-5.3-2.1-10.7-3.2-14.9c-2.1-8.5-5.3-16-7.5-23.5c-4.3-11.7-11.7-20.3-22.4-26.7c-5.3-3.2-10.7-5.3-17.1-7.5
	c-13.9-5.3-26.7-9.6-40.5-14.9c-5.3-2.1-9.6-3.2-14.9-4.3c-11.7-2.1-23.5-5.3-34.1-7.5c-12.8-2.1-25.6-4.3-38.4-4.3
	c-8.5,0-17.1-1.1-25.6-2.1c-13.9-1.1-26.7-3.2-40.5-4.3c-11.7-1.1-22.4,0-34.1,1.1c-6.4,1.1-12.8,2.1-19.2,5.3
	c-6.4,3.2-13.9,4.3-21.3,5.3c-4.3,1.1-8.5,1.1-12.8,2.1c-11.7,1.1-23.5,1.1-34.1-2.1c-4.3-1.1-9.6-2.1-13.9-4.3
	c-2.1,0-3.2-1.1-5.3-1.1c0,2.1-1.1,4.3-1.1,6.4c-1.1,12.8-3.2,25.6-4.3,38.4c-1.1,14.9-3.2,29.9-4.3,44.8
	c-1.1,13.9-2.1,27.7-3.2,40.5c-1.1,12.8-2.1,25.6-3.2,38.4c-1.1,13.9-2.1,26.7-3.2,40.5c-1.1,18.1-3.2,37.3-4.3,55.5
	c-1.1,13.9-2.1,27.7-3.2,40.5c-1.1,14.9-2.1,29.9-4.3,43.7c-2.1,19.2-5.3,39.5-7.5,58.7c-2.1,26.7-4.3,52.3-6.4,78.9
	c-1.1,6.4-1.1,12.8-2.1,19.2c-1.1,8.5-2.1,17.1-4.3,25.6c-1.1,3.2-1.1,6.4,0,9.6c3.2,1.1,5.3,0,8.5,1.1c0,2.1-1.1,4.3-1.1,6.4
	c1.1,0,2.1,0,2.1,0c3.2,0,6.4,0,9.6,2.1c2.1,1.1,4.3,1.1,6.4,2.1c7.5,0,14.9,1.1,22.4,1.1c18.1,0,36.3,1.1,53.3,1.1
	c2.1,0,4.3,0,6.4,0c6.4-1.1,10.7-5.3,11.7-10.7c1.1-3.2,0-5.3-3.2-5.3c-2.1,0-3.2,0-5.3,0c-11.7-1.1-22.4-1.1-34.1-2.1
	c-12.8-1.1-24.5-1.1-37.3-1.1c-3.2,0-6.4,0-8.5,0s-3.2-1.1-4.3-1.1c-1.1-1.1-1.1-2.1-1.1-3.2c0-1.1,1.1-1.1,2.1-2.1
	c1.1,0,2.1,0,3.2,0c5.3,0,9.6,0,14.9,0c6.4,0,12.8-1.1,19.2,1.1c1.1,0,2.1,0,3.2,0c4.3,0,7.5-1.1,9.6-4.3c1.1-2.1,2.1-3.2,4.3-5.3
	c1.1-1.1,2.1-2.1,3.2-1.1c0,3.2-2.1,5.3-2.1,8.5c1.1,0,2.1,1.1,2.1,1.1c7.5,2.1,13.9,3.2,21.3,3.2c22.4,0,43.7,0,66.1,0
	c1.1,0,1.1,0,2.1,0c3.2,0,5.3-2.1,7.5-5.3c1.1-3.2,2.1-5.3,4.3-8.5c0-1.1,1.1-2.1,3.2-1.1c0,2.1,0,3.2,1.1,5.3
	c1.1,6.4,4.3,8.5,10.7,8.5c1.1,0,2.1,0,4.3,0c7.5,1.1,14.9,1.1,22.4,2.1c8.5,1.1,17.1,3.2,24.5,4.3c2.1,0,3.2,1.1,6.4,2.1
	C329.6,793.6,324.3,791.5,318.9,792.5z"/>
<path d="M606.9,766.9c-2.1,1.1-4.3,1.1-6.4,2.1c-3.2,1.1-5.3,2.1-7.5,4.3c-3.2,4.3-5.3,9.6-6.4,14.9c5.3,1.1,9.6,2.1,13.9,1.1
	c5.3,0,8.5-4.3,12.8-6.4c0,1.1,0,1.1,1.1,2.1c0,8.5,2.1,11.7,9.6,12.8c5.3,1.1,10.7,1.1,16,2.1c6.4,0,10.7-3.2,13.9-7.5
	c1.1-1.1,2.1-2.1,2.1-4.3c1.1,0,3.2,0,5.3,0c5.3,0,9.6,1.1,14.9,1.1c6.4,0,13.9,1.1,20.3,1.1c5.3,0,9.6-2.1,12.8-6.4
	c3.2-4.3,3.2-9.6,4.3-14.9c-2.1,0-4.3,0-6.4,0c-9.6,0-18.1,0-27.7-1.1c-3.2,0-5.3-1.1-8.5-1.1c-1.1,0-2.1-1.1-2.1-1.1
	c0-1.1,1.1-2.1,2.1-2.1c1.1,0,3.2,0,4.3,0c27.7,0,54.4,0,82.1,0c1.1,0,3.2,0,4.3,0s2.1,0,2.1,1.1c-2.1,1.1-4.3,1.1-6.4,2.1
	c-7.5,0-14.9,1.1-22.4,1.1c-3.2,0-7.5,1.1-10.7,1.1s-5.3,2.1-6.4,5.3c-1.1,3.2-2.1,5.3-3.2,8.5c-1.1,3.2,1.1,6.4,5.3,6.4
	c2.1,0,4.3,0,5.3,0c11.7-1.1,23.5-1.1,35.2-2.1c4.3,0,9.6,0,13.9,0c3.2,0,5.3,1.1,6.4,4.3c1.1,3.2,4.3,6.4,7.5,7.5
	c5.3,2.1,10.7,3.2,17.1,3.2c7.5,0,13.9-4.3,18.1-11.7c1.1-1.1,1.1-3.2,2.1-4.3c5.3,0,9.6-1.1,14.9-1.1c6.4-1.1,10.7-3.2,14.9-7.5
	c2.1-2.1,4.3-5.3,6.4-7.5c1.1-1.1,1.1-2.1,2.1-1.1c-1.1,4.3-2.1,9.6-3.2,13.9c2.1,0,3.2,1.1,4.3,1.1c3.2,0,6.4,0,9.6,0
	c10.7,0,20.3-1.1,30.9-1.1c7.5,0,14.9,1.1,22.4,1.1c2.1,0,4.3,1.1,6.4,1.1c1.1,0,3.2,1.1,2.1,3.2c-2.1,0-3.2,0-5.3,1.1
	c-4.3,1.1-6.4,2.1-7.5,6.4c-1.1,4.3-2.1,8.5-3.2,13.9c0,1.1,0,2.1,0,3.2c0,4.3,1.1,6.4,5.3,6.4c2.1,0,4.3,1.1,5.3,1.1
	c11.7-1.1,24.5-1.1,36.3-2.1c1.1,0,2.1-1.1,3.2-1.1c0-2.1-1.1-3.2-1.1-4.3c-1.1-2.1-2.1-5.3-3.2-7.5c-16-37.3-29.9-74.7-42.7-113.1
	c-18.1-54.4-35.2-109.9-54.4-164.3c-6.4-19.2-12.8-38.4-18.1-57.6c-6.4-22.4-12.8-44.8-20.3-67.2c-7.5-21.3-13.9-42.7-20.3-64
	c-6.4-20.3-12.8-40.5-20.3-60.8c-2.1-6.4-5.3-13.9-7.5-20.3c-2.1-4.3-3.2-4.3-7.5-4.3c-1.1,0-2.1,0-3.2,1.1
	c-14.9,3.2-29.9,5.3-44.8,5.3c-24.5,1.1-48-1.1-71.5-7.5c-8.5-2.1-10.7,0-13.9,7.5c-10.7,33.1-20.3,65.1-30.9,98.1
	c-9.6,28.8-18.1,58.7-27.7,87.5c-5.3,14.9-9.6,29.9-14.9,44.8c-3.2,12.8-7.5,24.5-11.7,36.3c-4.3,12.8-8.5,24.5-13.9,37.3
	c-8.5,22.4-16,44.8-23.5,67.2c-2.1,8.5-5.3,16-7.5,24.5c-2.1,6.4-4.3,12.8-6.4,20.3c-4.3,16-9.6,33.1-14.9,49.1
	c-4.3,11.7-8.5,23.5-12.8,35.2c-6.4,18.1-12.8,36.3-20.3,54.4c-1.1,2.1-1.1,3.2-1.1,5.3c1.1,0,1.1,1.1,1.1,1.1c7.5,0,14.9,0,22.4,0
	c2.1,0,3.2-1.1,5.3-2.1c1.1-1.1,2.1-3.2,4.3-4.3c0-1.1,1.1-1.1,2.1-2.1c0,2.1,0,4.3,0,7.5c2.1-1.1,3.2-2.1,4.3-3.2
	c1.1-3.2,4.3-6.4,7.5-8.5c1.1-1.1,2.1-3.2,4.3-4.3c2.1-2.1,2.1-4.3,2.1-7.5c-3.2-2.1-6.4-2.1-9.6-2.1c-3.2,0-5.3,0-8.5-1.1
	c-1.1,0-2.1,0-2.1-1.1c1.1-3.2,3.2-3.2,5.3-3.2c5.3-1.1,10.7-1.1,16-2.1c8.5-2.1,17.1-2.1,26.7-1.1c11.7,1.1,23.5,2.1,34.1,2.1
	c3.2,0,6.4,0,9.6-3.2c3.2-2.1,5.3-5.3,6.4-9.6c1.1-3.2,0-5.3-3.2-6.4c-2.1-1.1-4.3-1.1-5.3-1.1c-1.1,0-2.1,0-1.1-1.1
	C582.4,765.9,600.5,765.9,606.9,766.9z"/>
<path d="M638.9,824.5c1.1,0,1.1,1.1,2.1,1.1c18.1,1.1,35.2,3.2,53.3,4.3c2.1,0,4.3,0,5.3,0c13.9-1.1,26.7,0,40.5,0
	c11.7,0,22.4,1.1,34.1,1.1c5.3,0,6.4-1.1,7.5-6.4c1.1-4.3,2.1-8.5,2.1-12.8c0-2.1,0-4.3,0-6.4c0-4.3-2.1-7.5-6.4-9.6
	c-2.1-1.1-4.3-1.1-6.4-2.1c-7.5-1.1-16-2.1-23.5-2.1c-5.3,0-9.6,1.1-14.9,2.1c-6.4,2.1-11.7,3.2-18.1,2.1
	c-12.8-1.1-25.6-1.1-37.3-3.2c-5.3-1.1-9.6,0-13.9,2.1c-5.3,3.2-10.7,6.4-17.1,8.5c-2.1,1.1-4.3,3.2-4.3,5.3
	C640,814.9,640,819.2,638.9,824.5z"/>
<path d="M749.9,838.4L749.9,838.4c-9.6-1.1-20.3-1.1-29.9-1.1c-2.1,0-4.3,0-6.4,0s-3.2,1.1-4.3,3.2c-1.1,6.4-2.1,12.8-4.3,19.2
	c-1.1,4.3-1.1,7.5-2.1,11.7c0,2.1,2.1,4.3,3.2,2.1c4.3-3.2,8.5-2.1,13.9-1.1c4.3,0,7.5,1.1,11.7,1.1c9.6,0,20.3-1.1,29.9-1.1
	c6.4,0,13.9-1.1,20.3-1.1c4.3,0,7.5,0,11.7,0c11.7-2.1,22.4-3.2,34.1-4.3c6.4-1.1,10.7-4.3,13.9-9.6c3.2-5.3,4.3-12.8,4.3-19.2
	c0-2.1-1.1-3.2-3.2-4.3c-1.1,0-2.1-1.1-3.2-1.1c-6.4-1.1-11.7-1.1-18.1-1.1c-10.7,1.1-22.4,2.1-33.1,3.2c-5.3,1.1-10.7,1.1-16,1.1
	C765.9,838.4,758.4,838.4,749.9,838.4z"/>
<path d="M690.1,875.7c2.1-1.1,4.3-2.1,5.3-4.3c2.1-3.2,4.3-6.4,5.3-10.7c2.1-6.4,2.1-12.8,3.2-19.2c0-2.1-1.1-3.2-2.1-4.3
	c-2.1-2.1-5.3-2.1-7.5-2.1c-5.3,0-11.7-1.1-17.1-1.1c-8.5-1.1-17.1-2.1-25.6-2.1c-23.5,1.1-46.9,2.1-70.4,3.2c-1.1,0-3.2,0-4.3,0
	c-2.1,0-4.3,1.1-4.3,3.2c-2.1,6.4-4.3,11.7-6.4,18.1c0,0,0,1.1,1.1,2.1c4.3-3.2,5.3-7.5,9.6-9.6c0,4.3-3.2,7.5-3.2,11.7
	c2.1-1.1,4.3-1.1,6.4-2.1c2.1,1.1,3.2,2.1,5.3,3.2c2.1,2.1,5.3,3.2,8.5,4.3c3.2,1.1,5.3,1.1,8.5,1.1c9.6,1.1,20.3,2.1,29.9,3.2
	c9.6,1.1,19.2,2.1,28.8,1.1c5.3-1.1,10.7-1.1,16,1.1c3.2,1.1,7.5,1.1,9.6-2.1c0,0,1.1,0,2.1,0C689.1,872.5,689.1,873.6,690.1,875.7z
	"/>
<path d="M648.5,238.9c1.1,1.1,2.1,1.1,2.1,1.1c11.7,2.1,24.5,4.3,36.3,5.3c17.1,1.1,33.1,2.1,50.1,3.2c8.5,1.1,16,0,23.5-3.2
	c1.1,0,2.1-1.1,3.2-1.1c-5.3-9.6-18.1-26.7-25.6-32c-3.2-2.1-5.3-4.3-8.5-6.4c-4.3-2.1-7.5-3.2-12.8-4.3c-4.3,0-8.5-1.1-12.8-1.1
	c-11.7-2.1-23.5-4.3-34.1-9.6h-1.1c-3.2-1.1-6.4,0-7.5,3.2c0,1.1-1.1,1.1-1.1,2.1c-3.2,12.8-7.5,26.7-10.7,39.5
	C648.5,236.8,648.5,237.9,648.5,238.9z"/>
<path d="M244.3,855.5c2.1-2.1,4.3-3.2,6.4-4.3s4.3-3.2,5.3-5.3c3.2-7.5,6.4-14.9,9.6-22.4c1.1-1.1,1.1-3.2,1.1-5.3
	c0-3.2-1.1-5.3-4.3-6.4c-1.1,0-2.1-1.1-3.2-1.1c-7.5,0-13.9,0-21.3,0c-3.2,0-6.4,1.1-9.6,1.1c-5.3,1.1-11.7,1.1-17.1,2.1
	c-11.7,1.1-23.5,0-35.2-1.1c-2.1,0-4.3,0-6.4,0c-3.2,0-7.5,1.1-10.7,2.1c-10.7,5.3-18.1,13.9-23.5,23.5c-1.1,1.1-1.1,2.1-1.1,3.2
	c0,3.2,1.1,5.3,4.3,6.4s6.4,2.1,9.6,2.1c0-1.1,1.1-2.1,1.1-2.1c1.1-1.1,1.1-3.2,2.1-4.3c1.1-1.1,2.1-2.1,3.2-1.1
	c2.1,4.3,6.4,4.3,10.7,5.3c2.1,1.1,4.3,2.1,7.5,2.1c2.1,1.1,5.3,2.1,7.5,3.2c3.2,1.1,5.3,1.1,8.5,1.1c4.3,0,8.5-3.2,11.7-6.4
	c1.1-1.1,2.1-3.2,4.3-4.3c1.1-1.1,3.2-1.1,5.3,0c1.1,1.1,1.1,2.1,2.1,2.1c1.1,2.1,3.2,3.2,5.3,3.2s3.2,0,5.3,0
	c2.1-1.1,5.3-1.1,7.5-3.2c2.1-1.1,4.3-1.1,6.4,0C235.7,851.2,240,853.3,244.3,855.5z"/>
<path d="M504.5,820.3c1.1,1.1,2.1,1.1,3.2,2.1c3.2,1.1,6.4,2.1,9.6,3.2c13.9,3.2,27.7,4.3,42.7,5.3c19.2,1.1,37.3-1.1,56.5-1.1
	c5.3,0,8.5-2.1,11.7-6.4c2.1-2.1,3.2-4.3,4.3-6.4c2.1-4.3,1.1-6.4-3.2-8.5c-1.1,0-2.1-1.1-3.2-1.1c-4.3-2.1-9.6-3.2-13.9-5.3
	c-8.5-3.2-18.1-5.3-27.7-5.3c-8.5,0-18.1,0-26.7-1.1c-10.7,0-21.3-1.1-33.1-2.1c-2.1,0-5.3-1.1-7.5,0
	C514.1,801.1,509.9,810.7,504.5,820.3z"/>
<path d="M877.9,786.1L877.9,786.1c-10.7,1.1-22.4,1.1-33.1,1.1c-6.4,0-10.7,2.1-14.9,6.4c-5.3,6.4-12.8,8.5-20.3,9.6
	c-3.2,0-5.3,0-8.5,0c-2.1,0-5.3,1.1-7.5,2.1s-4.3,3.2-3.2,6.4c1.1,4.3,1.1,8.5,2.1,12.8c1.1,3.2,3.2,4.3,6.4,4.3
	c2.1,0,4.3,0,6.4-1.1c7.5-1.1,14.9-2.1,22.4-2.1c2.1,0,4.3,0,6.4-1.1c21.3-3.2,42.7-6.4,64-9.6c2.1,0,5.3-1.1,7.5-2.1
	c3.2-1.1,6.4-3.2,8.5-7.5c2.1-5.3,4.3-10.7,4.3-16c0-3.2-1.1-5.3-4.3-5.3c-2.1,0-4.3,0-5.3,0C898.1,786.1,887.5,786.1,877.9,786.1z"
	/>
<path d="M869.3,856.5c3.2,3.2,6.4,2.1,9.6,1.1c10.7-3.2,21.3-7.5,32-10.7c9.6-3.2,20.3-6.4,29.9-8.5c6.4-2.1,11.7-4.3,17.1-7.5
	c1.1,0,1.1-1.1,1.1-1.1c1.1,0,0-2.1,0-2.1c-1.1,0-2.1,0-2.1,0c-7.5-1.1-16-1.1-23.5-2.1c-3.2,0-6.4-1.1-9.6-1.1
	c-19.2-1.1-37.3,2.1-56.5,4.3c-2.1,0-4.3,1.1-6.4,2.1c-3.2,1.1-6.4,3.2-6.4,7.5c-1.1,7.5-2.1,14.9-3.2,23.5c0,1.1,0,1.1,0,2.1
	c3.2,0,5.3-1.1,8.5-1.1C862.9,860.8,867.2,860.8,869.3,856.5z"/>
<path d="M204.8,805.3c0,3.2,2.1,2.1,4.3,2.1c11.7,0,22.4,0,34.1,0c3.2,0,6.4,0,9.6-1.1c7.5-2.1,14.9-2.1,23.5-1.1
	c2.1,0,4.3,0,6.4,1.1c5.3,1.1,11.7,1.1,17.1,2.1c2.1,0,4.3,0,6.4,0c2.1,0,4.3-2.1,6.4-4.3c2.1-3.2,2.1-6.4,1.1-10.7
	c-1.1,0-2.1,0-3.2,0c-6.4,0-11.7-1.1-18.1-1.1c-16-1.1-30.9-2.1-46.9-3.2c-10.7-1.1-21.3,0-32,3.2c-2.1,0-3.2,1.1-5.3,2.1
	c-6.4,2.1-8.5,6.4-7.5,13.9C201.6,805.3,203.7,805.3,204.8,805.3z"/>
<path d="M342.4,823.5c-1.1-2.1-3.2-3.2-5.3-3.2c-8.5-1.1-16-2.1-24.5-3.2c-8.5-1.1-16-2.1-24.5-3.2c-5.3-1.1-9.6,1.1-12.8,6.4
	c-3.2,6.4-7.5,13.9-10.7,20.3c-1.1,1.1-1.1,2.1-1.1,3.2c-1.1,1.1,0,3.2,1.1,4.3c1.1,1.1,3.2,1.1,4.3,0c1.1,0,1.1-1.1,2.1-1.1
	c1.1-1.1,3.2-1.1,4.3,0c2.1,2.1,4.3,2.1,6.4,2.1c1.1,0,2.1,0,3.2,0c2.1-1.1,5.3,0,7.5,1.1c2.1,1.1,5.3,1.1,7.5,0
	c3.2-1.1,6.4-2.1,8.5-3.2c4.3-2.1,7.5-4.3,12.8-4.3c1.1,0,2.1-1.1,3.2-1.1c3.2-2.1,7.5-4.3,10.7-6.4
	C339.2,832,339.2,826.7,342.4,823.5C342.4,824.5,342.4,823.5,342.4,823.5z"/>
<path d="M146.1,166.4c-3.2,6.4-5.3,11.7-6.4,17.1c-2.1,10.7-4.3,22.4-6.4,33.1c-1.1,3.2-1.1,6.4-2.1,9.6c-1.1,7.5,0,9.6,7.5,12.8
	c3.2,1.1,6.4,3.2,9.6,3.2c10.7,3.2,21.3,3.2,33.1,2.1c2.1,0,5.3-1.1,7.5-2.1c1.1,0,1.1-1.1,2.1-2.1c-2.1-1.1-4.3-1.1-6.4,0
	c-9.6,2.1-18.1-1.1-26.7-4.3c-5.3-2.1-8.5-6.4-8.5-11.7c0-4.3,0-7.5,1.1-11.7c1.1-6.4,2.1-12.8,2.1-19.2c0-3.2,0-5.3,1.1-8.5
	c0-4.3,2.1-6.4,6.4-7.5c2.1,0,3.2-1.1,5.3-1.1c1.1,0,2.1-1.1,3.2-2.1C160,171.7,153.6,169.6,146.1,166.4z"/>
<path d="M555.7,854.4c1.1,0,1.1,0,1.1,0c2.1-2.1,6.4-12.8,7.5-17.1c-2.1,0-4.3,0-5.3,0c-5.3,0-10.7,0-14.9,0
	c-11.7-1.1-22.4-3.2-34.1-5.3c-10.7-2.1-21.3-3.2-32-2.1c-1.1,0-2.1,0-2.1,1.1c2.1,1.1,3.2,2.1,5.3,3.2c2.1,1.1,3.2,2.1,5.3,3.2
	c2.1,0,3.2,0,5.3-1.1c2.1,3.2,4.3,4.3,7.5,5.3c12.8,4.3,26.7,8.5,39.5,11.7c4.3,1.1,7.5,1.1,11.7,0c2.1-2.1,0-6.4,4.3-7.5
	C554.7,849.1,554.7,851.2,555.7,854.4z"/>
<path d="M108.8,812.8c-3.2,0-6.4,0-9.6,1.1c-3.2,1.1-6.4,2.1-8.5,5.3c-1.1,2.1-1.1,3.2,0,5.3c2.1,3.2,5.3,5.3,9.6,7.5
	c5.3,2.1,9.6,4.3,14.9,5.3c2.1,1.1,3.2,0,4.3-1.1c2.1-1.1,4.3-3.2,6.4-3.2c1.1,0,2.1-1.1,3.2-2.1c2.1-2.1,4.3-5.3,6.4-7.5
	c1.1-1.1,1.1-2.1,1.1-3.2c1.1-3.2,0-5.3-3.2-5.3c-5.3-1.1-9.6-1.1-14.9-2.1C116.3,812.8,112,812.8,108.8,812.8z"/>
<path d="M123.7,247.5c-3.2-6.4-3.2-6.4-1.1-12.8c3.2-20.3,7.5-41.6,10.7-61.9c0-2.1,1.1-3.2,0-5.3c-1.1,1.1-1.1,1.1-2.1,2.1
	c-1.1,4.3-3.2,7.5-4.3,11.7c-5.3,18.1-9.6,37.3-12.8,55.5c0,2.1-1.1,4.3,0,5.3c0,3.2,4.3,7.5,7.5,7.5
	C121.6,249.6,122.7,248.5,123.7,247.5z"/>
<path d="M514.1,313.6c1.1,7.5,3.2,14.9,5.3,22.4c2.1,7.5,4.3,14.9,6.4,21.3c2.1-1.1,3.2-1.1,5.3-2.1c12.8-6.4,22.4-14.9,32-24.5
	c0,0,0-1.1,0-2.1c-2.1,1.1-4.3,2.1-5.3,3.2c-6.4,4.3-12.8,8.5-18.1,11.7c-1.1,1.1-3.2,2.1-5.3,2.1c-2.1,1.1-3.2,0-4.3-1.1
	c-1.1-1.1-1.1-2.1-1.1-3.2c-2.1-5.3-4.3-10.7-6.4-17.1C519.5,320,518.4,316.8,514.1,313.6z"/>
<path d="M673.1,174.9L673.1,174.9c-2.1-1.1-4.3-1.1-5.3-1.1c-6.4,0-11.7,2.1-13.9,9.6c-1.1,4.3-3.2,8.5-5.3,12.8
	c-4.3,12.8-8.5,26.7-12.8,39.5c-1.1,2.1-1.1,3.2-1.1,5.3c0,1.1,1.1,3.2,2.1,3.2c1.1,0,2.1,0,3.2-2.1c0-1.1,1.1-2.1,1.1-3.2
	c4.3-14.9,8.5-29.9,12.8-44.8c2.1-9.6,7.5-16,17.1-17.1C672,176,672,176,673.1,174.9z"/>
<path d="M716.8,196.3L716.8,196.3c1.1,1.1,2.1,1.1,3.2,1.1c10.7,2.1,20.3,2.1,30.9,0c2.1,0,3.2-1.1,4.3-1.1c2.1-1.1,2.1-2.1,2.1-4.3
	c0-3.2-2.1-6.4-5.3-8.5c-3.2-2.1-6.4-3.2-9.6-1.1c1.1,1.1,3.2,3.2,4.3,4.3s1.1,2.1,1.1,3.2c-3.2,0-5.3,1.1-7.5,1.1
	c-7.5,1.1-13.9,2.1-21.3,3.2C717.9,194.1,716.8,194.1,716.8,196.3z"/>
<path d="M229.3,234.7c1.1-1.1,1.1-2.1,1.1-2.1c0-2.1,0-3.2-1.1-5.3c-1.1-5.3-2.1-10.7-3.2-16c-2.1-9.6-4.3-18.1-6.4-27.7
	c0,0-1.1,0-1.1-1.1c-1.1,0-1.1,1.1-2.1,1.1c2.1,12.8,4.3,25.6,6.4,38.4C224,226.1,226.1,230.4,229.3,234.7z"/>
<path d="M508.8,289.1c10.7-2.1,22.4-4.3,33.1-6.4c1.1,0,1.1-1.1,1.1-1.1c-4.3-2.1-7.5-2.1-12.8-1.1
	C522.7,281.6,515.2,282.7,508.8,289.1z"/>
<path d="M773.3,237.9c0-1.1,0-2.1,0-3.2c-2.1-7.5-4.3-13.9-6.4-21.3c-1.1-4.3-3.2-8.5-5.3-12.8c0-1.1-1.1-1.1-2.1-2.1
	c0,2.1,0,2.1,0,3.2c4.3,11.7,8.5,23.5,12.8,35.2C772.3,236.8,773.3,236.8,773.3,237.9z"/>
<path d="M724.3,645.3c0-2.1,0-4.3,1.1-5.3c1.1-7.5,2.1-14.9,1.1-22.4c-1.1-5.3-1.1-9.6-2.1-13.9c-1.1-6.4,1.1-8.5,7.5-8.5
	c11.7,0,22.4-1.1,34.1-1.1c3.2,0,6.4-1.1,8.5-1.1c4.3-1.1,6.4-4.3,8.5-7.5c1.1-3.2,2.1-6.4,1.1-9.6c0-2.1-1.1-4.3-1.1-6.4
	c-2.1-19.2-4.3-38.4-6.4-58.7c-2.1-21.3-4.3-41.6-7.5-62.9c-1.1-6.4-2.1-12.8-3.2-19.2c-1.1-6.4-5.3-9.6-10.7-10.7
	c-1.1,0-2.1,0-4.3,0c-23.5,0-46.9-1.1-70.4-1.1c-3.2,0-6.4,0-8.5,1.1c-5.3,1.1-8.5,4.3-10.7,8.5c-1.1,2.1-2.1,4.3-2.1,6.4
	c-1.1,4.3-1.1,8.5-1.1,12.8c-1.1,14.9-3.2,28.8-4.3,43.7c-1.1,13.9-3.2,26.7-4.3,40.5c-1.1,13.9-3.2,26.7-4.3,40.5
	c0,2.1,0,5.3,0,7.5c0,6.4,3.2,10.7,9.6,11.7c2.1,1.1,5.3,1.1,8.5,1.1c11.7,1.1,23.5,1.1,34.1,2.1c2.1,0,3.2,0,5.3,2.1
	c0,6.4,0,13.9,0,21.3c0,3.2-1.1,5.3-2.1,7.5c-2.1,3.2-2.1,6.4-1.1,10.7c0,1.1,1.1,3.2,2.1,4.3c0,1.1,0,2.1,1.1,4.3
	c-2.1,0-4.3,0-6.4,1.1c-2.1,0-4.3,0-7.5,0c-4.3,0-6.4,2.1-8.5,5.3c-1.1,1.1-1.1,3.2-2.1,4.3c-3.2,6.4-5.3,12.8-8.5,18.1
	c-16,35.2-32,70.4-48,106.7c-1.1,2.1-2.1,4.3-3.2,6.4c-1.1,3.2,0,5.3,2.1,6.4c3.2,1.1,6.4,3.2,9.6,3.2c7.5,2.1,11.7,0,16-6.4
	c1.1-1.1,1.1-2.1,1.1-3.2c5.3-10.7,9.6-20.3,14.9-30.9c1.1-1.1,1.1-3.2,2.1-4.3c2.1-3.2,4.3-5.3,8.5-5.3c2.1,0,4.3,0,5.3,0
	c23.5,0,48,0,71.5,0c1.1,0,3.2,0,4.3,0c6.4,0,11.7,3.2,14.9,8.5c1.1,1.1,2.1,3.2,3.2,5.3c4.3,7.5,8.5,16,12.8,23.5
	c1.1,2.1,2.1,4.3,3.2,6.4c1.1,2.1,3.2,4.3,6.4,3.2c4.3,0,8.5,0,12.8,0c2.1,0,3.2,0,5.3-1.1c3.2-1.1,4.3-3.2,3.2-5.3
	s-2.1-4.3-3.2-5.3c-3.2-6.4-7.5-12.8-10.7-19.2c-18.1-36.3-36.3-71.5-55.5-107.7c-1.1-2.1-2.1-4.3-3.2-5.3c-2.1-3.2-4.3-4.3-7.5-4.3
	c-2.1,0-5.3,0-7.5,0C729.6,645.3,727.5,645.3,724.3,645.3z"/>
<path id="cutout" fill="none" d="M284.8,469.3c0-1.1-1.1-1.1-1.1-2.1c-7.5-30.9-16-60.8-24.5-91.7c-5.3-21.3-11.7-42.7-14.9-64
	c0-3.2-1.1-5.3-1.1-8.5c1.1,0,3.2-1.1,4.3-1.1c2.1,0,4.3,0,5.3,0c17.1,1.1,35.2,1.1,52.3,2.1c18.1,1.1,36.3,0,54.4-2.1
	c1.1,0,2.1-1.1,3.2-1.1c3.2,0,6.4-2.1,8.5-4.3c2.1-2.1,3.2-4.3,5.3-5.3c3.2,2.1,4.3,5.3,6.4,7.5c4.3,8.5,7.5,17.1,7.5,26.7
	c0,6.4,1.1,13.9,1.1,21.3c0,8.5,0,18.1,1.1,26.7c0,4.3,0,8.5,0,12.8c0,4.3,0,8.5,1.1,12.8c1.1,7.5,0,14.9-3.2,22.4
	c-3.2,7.5-7.5,13.9-12.8,20.3c-3.2,4.3-7.5,7.5-11.7,9.6c-3.2,2.1-7.5,3.2-10.7,4.3c-12.8,4.3-25.6,7.5-39.5,9.6
	c-9.6,1.1-18.1,3.2-27.7,5.3C285.9,469.3,285.9,469.3,284.8,469.3z"/>
<path d="M746.7,547.2c0-6.4-1.1-12.8-5.3-19.2c-4.3-6.4-9.6-10.7-17.1-11.7c-9.6-1.1-18.1,1.1-26.7,5.3c-6.4,3.2-9.6,8.5-11.7,16
	c-1.1,3.2-1.1,6.4-1.1,9.6c-1.1,11.7,6.4,21.3,18.1,25.6c10.7,3.2,20.3,2.1,29.9-2.1c5.3-3.2,9.6-7.5,10.7-12.8
	C745.6,553.6,745.6,550.4,746.7,547.2z"/>
<path d="M716.8,502.4L716.8,502.4c4.3,0,7.5,0,11.7-1.1c9.6-2.1,14.9-7.5,17.1-17.1c1.1-4.3,1.1-9.6,1.1-13.9s-1.1-7.5-3.2-10.7
	c-2.1-3.2-5.3-5.3-8.5-7.5c-10.7-5.3-22.4-5.3-33.1,0c-5.3,2.1-8.5,7.5-10.7,12.8c-2.1,6.4-2.1,12.8,0,18.1
	c3.2,10.7,10.7,17.1,22.4,18.1C713.6,502.4,714.7,502.4,716.8,502.4z"/>
<path d="M711.5,430.9C711.5,430.9,710.4,429.9,711.5,430.9c-9.6,0-19.2,0-27.7,0c0,0,0,0-1.1,0c-4.3,1.1-6.4,3.2-7.5,6.4
	c0,1.1-1.1,3.2-1.1,4.3c0,4.3-1.1,8.5-1.1,12.8c-2.1,17.1-4.3,35.2-5.3,52.3c-2.1,19.2-4.3,37.3-5.3,56.5c0,1.1,0,3.2,0,4.3
	c1.1,6.4,4.3,9.6,10.7,10.7c3.2,0,6.4,0,9.6,0c1.1,0,1.1-1.1,2.1-1.1c-2.1-2.1-5.3-2.1-7.5-3.2c-7.5-2.1-8.5-4.3-8.5-12.8
	c0-1.1,0-1.1,0-2.1c1.1-6.4,1.1-11.7,2.1-18.1c1.1-5.3,1.1-11.7,2.1-17.1c1.1-13.9,3.2-27.7,4.3-41.6c1.1-11.7,3.2-23.5,4.3-34.1
	c0-2.1,1.1-4.3,1.1-6.4c1.1-3.2,2.1-5.3,5.3-6.4c2.1,0,4.3,0,5.3-1.1c5.3-1.1,11.7-2.1,17.1-3.2C711.5,433.1,711.5,432,711.5,430.9z
	"/>
<path d="M727.5,672c-2.1,2.1-2.1,5.3-2.1,7.5c0,14.9,0,29.9,0,43.7c0,1.1,0,2.1,0,3.2c0,3.2,2.1,5.3,5.3,5.3c7.5,0,14.9,0,22.4,0
	c3.2,0,3.2-2.1,3.2-4.3c0-1.1-1.1-1.1-1.1-2.1c-8.5-17.1-17.1-34.1-25.6-51.2C728.5,674.1,727.5,673.1,727.5,672z"/>
<path d="M701.9,674.1h-1.1c-1.1,1.1-1.1,2.1-2.1,3.2c-10.7,24.5-21.3,51.2-22.4,55.5c7.5,0,13.9,0,21.3,0c3.2,0,4.3-1.1,4.3-4.3
	c0-1.1,0-2.1,0-4.3c0-14.9,0-30.9,0-45.9C701.9,677.3,701.9,675.2,701.9,674.1z"/>
<path d="M696.5,544c0,3.2,1.1,5.3,1.1,8.5c3.2,11.7,19.2,17.1,28.8,9.6c3.2-2.1,5.3-5.3,7.5-8.5c7.5-13.9-5.3-28.8-17.1-27.7
	c-3.2,0-5.3,1.1-8.5,1.1C698.7,530.1,696.5,536.5,696.5,544z"/>
<path d="M734.9,474.7c0-1.1-1.1-3.2-1.1-5.3c-4.3-7.5-11.7-11.7-20.3-10.7c-9.6,1.1-14.9,10.7-12.8,19.2c2.1,7.5,9.6,12.8,18.1,13.9
	C726.4,492.8,734.9,484.3,734.9,474.7z"/>
</svg>
